<?xml version="1.0" standalone="no"?>
<!DOCTYPE svg PUBLIC "-//W3C//DTD SVG 20010904//EN"
 "http://www.w3.org/TR/2001/REC-SVG-20010904/DTD/svg10.dtd">
<svg version="1.0" xmlns="http://www.w3.org/2000/svg"
 width="428.000000pt" height="462.000000pt" viewBox="0 0 428.000000 462.000000"
 preserveAspectRatio="xMidYMid meet">
<metadata>
Created by potrace 1.16, written by Peter Selinger 2001-2019
</metadata>
<g transform="translate(0.000000,462.000000) scale(0.100000,-0.100000)"
fill="#61dafb" stroke="none">
<path d="M1919 4553 c-16 -38 -40 -86 -52 -108 -75 -139 -113 -213 -160 -310
-30 -61 -69 -135 -88 -165 -35 -56 -52 -90 -88 -170 -11 -25 -25 -52 -31 -60
-31 -47 -110 -196 -121 -228 -6 -20 -31 -68 -54 -107 -46 -76 -83 -147 -142
-270 -21 -44 -55 -105 -75 -137 -20 -31 -41 -72 -46 -90 -5 -18 -34 -78 -64
-133 -80 -146 -79 -144 -180 -349 -51 -104 -100 -198 -108 -210 -9 -12 -25
-41 -35 -66 -11 -25 -76 -155 -144 -290 -146 -287 -201 -396 -233 -465 -33
-68 -153 -311 -180 -360 -11 -22 -37 -69 -57 -105 l-35 -65 -8 -285 c-5 -157
-7 -352 -6 -434 l3 -148 53 51 c29 28 56 51 60 51 4 0 38 31 77 68 38 37 79
74 92 82 12 9 61 51 108 95 48 44 95 84 104 89 9 5 50 41 92 80 41 39 94 86
118 104 44 36 107 148 201 362 25 58 65 137 87 177 23 39 44 82 48 95 7 26
195 414 273 563 36 69 202 413 212 441 l10 27 40 -57 c21 -30 65 -99 96 -152
31 -54 84 -138 117 -188 34 -50 78 -125 100 -166 21 -41 49 -86 62 -100 23
-26 81 -116 103 -160 21 -44 53 -94 83 -133 17 -20 37 -53 44 -72 15 -34 103
-172 147 -230 13 -16 37 -58 53 -92 16 -35 32 -63 36 -63 8 0 54 -72 103 -162
l36 -66 -31 -27 c-39 -32 -96 -62 -168 -86 -45 -16 -84 -19 -238 -19 l-184 0
3 -132 3 -133 1098 -3 c1006 -2 1101 -1 1130 14 37 20 52 36 72 83 19 43 19
65 0 106 -24 48 -49 55 -211 55 -135 0 -152 2 -241 31 -85 28 -102 38 -154 88
-80 78 -137 150 -144 182 -3 15 -21 44 -38 65 -47 56 -121 162 -153 219 -15
28 -45 72 -66 99 -22 27 -48 67 -59 88 -23 45 -114 184 -140 213 -9 11 -27 40
-40 65 -12 25 -35 61 -50 80 -14 19 -59 88 -98 154 -40 65 -92 143 -117 173
-24 30 -44 61 -44 69 0 8 -26 53 -58 102 -33 48 -72 110 -87 137 -33 58 -105
168 -135 207 -11 14 -33 54 -49 88 -17 35 -45 81 -63 104 -32 39 -90 132 -142
226 -13 25 -43 69 -65 99 -23 30 -41 58 -41 63 0 5 -11 26 -24 47 -24 38 -24
38 -5 67 10 16 21 42 25 59 4 16 16 43 28 60 11 16 70 127 129 245 60 118 121
238 137 265 15 28 31 63 34 79 4 17 15 41 25 55 28 40 108 193 131 252 12 28
34 68 50 88 17 19 30 38 30 42 0 6 -39 26 -280 143 -63 31 -128 65 -145 75
-16 11 -38 20 -47 20 -9 1 -46 17 -82 36 -98 52 -111 49 -147 -32z"/>
</g>
</svg>
